<svg width="190" height="69" viewBox="0 0 190 69" fill="none" xmlns="http://www.w3.org/2000/svg">
<rect width="190" height="60" fill="white"/>
<path d="M178.354 20.8536C178.549 20.6583 178.549 20.3417 178.354 20.1464L175.172 16.9645C174.976 16.7692 174.66 16.7692 174.464 16.9645C174.269 17.1597 174.269 17.4763 174.464 17.6716L177.293 20.5L174.464 23.3284C174.269 23.5237 174.269 23.8403 174.464 24.0355C174.66 24.2308 174.976 24.2308 175.172 24.0355L178.354 20.8536ZM0 21H178V20H0V21Z" fill="black"/>
<g filter="url(#filter0_d_10_17)">
<path d="M129.354 56.8536C129.549 56.6583 129.549 56.3417 129.354 56.1464L126.172 52.9645C125.976 52.7692 125.66 52.7692 125.464 52.9645C125.269 53.1597 125.269 53.4763 125.464 53.6716L128.293 56.5L125.464 59.3284C125.269 59.5237 125.269 59.8403 125.464 60.0355C125.66 60.2308 125.976 60.2308 126.172 60.0355L129.354 56.8536ZM38 57H129V56H38V57Z" fill="black"/>
</g>
<circle cx="38" cy="21" r="3" fill="black"/>
<path d="M36.6705 29.4545L38.2386 32.1307L39.8068 29.4545H40.9659L38.8523 32.7273L40.9659 36H39.8068L38.2386 33.4602L36.6705 36H35.5114L37.5909 32.7273L35.5114 29.4545H36.6705ZM43.1353 32.3636V36H42.695V32.8253H42.6737L41.7859 33.4148V32.9673L42.695 32.3636H43.1353Z" fill="black"/>
<path d="M127.67 29.4545L129.239 32.1307L130.807 29.4545H131.966L129.852 32.7273L131.966 36H130.807L129.239 33.4602L127.67 36H126.511L128.591 32.7273L126.511 29.4545H127.67ZM132.857 36V35.6804L134.057 34.3665C134.198 34.2126 134.314 34.0788 134.405 33.9652C134.496 33.8504 134.564 33.7427 134.608 33.642C134.653 33.5402 134.675 33.4337 134.675 33.3224C134.675 33.1946 134.644 33.0839 134.583 32.9904C134.522 32.8969 134.44 32.8247 134.334 32.7738C134.229 32.7229 134.11 32.6974 133.979 32.6974C133.839 32.6974 133.717 32.7264 133.613 32.7844C133.51 32.8413 133.43 32.9212 133.374 33.0241C133.318 33.1271 133.29 33.2479 133.29 33.3864H132.871C132.871 33.1733 132.92 32.9863 133.018 32.8253C133.117 32.6643 133.25 32.5388 133.42 32.4489C133.59 32.3589 133.781 32.3139 133.993 32.3139C134.206 32.3139 134.395 32.3589 134.56 32.4489C134.724 32.5388 134.853 32.6602 134.947 32.8129C135.04 32.9656 135.087 33.1354 135.087 33.3224C135.087 33.4562 135.063 33.587 135.014 33.7148C134.967 33.8415 134.884 33.983 134.766 34.1392C134.648 34.2943 134.486 34.4837 134.277 34.7074L133.461 35.581V35.6094H135.151V36H132.857Z" fill="black"/>
<path d="M76.3068 51L79.5114 42.2727H80.6023L83.8068 51H76.3068ZM77.7557 50.0625H82.358L80.0909 43.6534H80.0227L77.7557 50.0625ZM85.7798 44.4545L87.348 47.1307L88.9162 44.4545H90.0753L87.9616 47.7273L90.0753 51H88.9162L87.348 48.4602L85.7798 51H84.6207L86.7003 47.7273L84.6207 44.4545H85.7798Z" fill="black"/>
<circle cx="129" cy="21" r="3" fill="black"/>
<path d="M38.9716 3.27273V12H37.9148V4.38068H37.8636L35.733 5.79545V4.72159L37.9148 3.27273H38.9716Z" fill="black"/>
<path d="M125.903 12V11.233L128.784 8.07955C129.122 7.71023 129.401 7.3892 129.619 7.11648C129.838 6.84091 130 6.58239 130.105 6.34091C130.213 6.09659 130.267 5.84091 130.267 5.57386C130.267 5.26705 130.193 5.00142 130.045 4.77699C129.901 4.55256 129.702 4.37926 129.449 4.2571C129.196 4.13494 128.912 4.07386 128.597 4.07386C128.261 4.07386 127.969 4.14347 127.719 4.28267C127.472 4.41903 127.28 4.6108 127.143 4.85795C127.01 5.10511 126.943 5.39489 126.943 5.72727H125.938C125.938 5.21591 126.055 4.76705 126.291 4.38068C126.527 3.99432 126.848 3.69318 127.254 3.47727C127.663 3.26136 128.122 3.15341 128.631 3.15341C129.142 3.15341 129.595 3.26136 129.99 3.47727C130.385 3.69318 130.695 3.98437 130.919 4.35085C131.143 4.71733 131.256 5.125 131.256 5.57386C131.256 5.89489 131.197 6.20881 131.081 6.51562C130.967 6.8196 130.768 7.15909 130.484 7.53409C130.203 7.90625 129.812 8.3608 129.312 8.89773L127.352 10.9943V11.0625H131.409V12H125.903Z" fill="black"/>
<path d="M184.67 18.4545L186.239 21.1307L187.807 18.4545H188.966L186.852 21.7273L188.966 25H187.807L186.239 22.4602L184.67 25H183.511L185.591 21.7273L183.511 18.4545H184.67Z" fill="black"/>
<line x1="38.5" y1="51" x2="38.5" y2="60" stroke="black"/>
<defs>
<filter id="filter0_d_10_17" x="34" y="52.818" width="99.5" height="15.364" filterUnits="userSpaceOnUse" color-interpolation-filters="sRGB">
<feFlood flood-opacity="0" result="BackgroundImageFix"/>
<feColorMatrix in="SourceAlpha" type="matrix" values="0 0 0 0 0 0 0 0 0 0 0 0 0 0 0 0 0 0 127 0" result="hardAlpha"/>
<feOffset dy="4"/>
<feGaussianBlur stdDeviation="2"/>
<feComposite in2="hardAlpha" operator="out"/>
<feColorMatrix type="matrix" values="0 0 0 0 0 0 0 0 0 0 0 0 0 0 0 0 0 0 0.25 0"/>
<feBlend mode="normal" in2="BackgroundImageFix" result="effect1_dropShadow_10_17"/>
<feBlend mode="normal" in="SourceGraphic" in2="effect1_dropShadow_10_17" result="shape"/>
</filter>
</defs>
</svg>
