<svg width="124" height="132" viewBox="0 0 124 132" fill="none" xmlns="http://www.w3.org/2000/svg">
<rect width="124" height="132" fill="white"/>
<line y1="75.5" x2="112" y2="75.5" stroke="black"/>
<line x1="56.5" y1="20" x2="56.5" y2="132" stroke="black"/>
<path d="M97.8732 32.9923C97.8689 32.7162 97.6417 32.4958 97.3656 32.5001L92.8661 32.5693C92.59 32.5736 92.3696 32.8009 92.3738 33.077C92.3781 33.3531 92.6054 33.5735 92.8815 33.5692L96.881 33.5076L96.9426 37.5072C96.9468 37.7833 97.1741 38.0037 97.4502 37.9994C97.7263 37.9952 97.9467 37.7679 97.9425 37.4918L97.8732 32.9923ZM56.359 76.0154L97.7322 33.3481L97.0143 32.6519L55.641 75.3192L56.359 76.0154Z" fill="black"/>
<line x1="97.5" y1="33" x2="97.5" y2="76" stroke="black" stroke-dasharray="2 2"/>
<path d="M63.5 68C65.5 68.5 68.9 70.8 66.5 76" stroke="black"/>
<path d="M105.886 69H104.409L108.682 57.3636H110.136L114.409 69H112.932L109.455 59.2045H109.364L105.886 69ZM106.432 64.4545H112.386V65.7045H106.432V64.4545ZM115.858 70.6364C115.744 70.6364 115.643 70.6269 115.554 70.608C115.465 70.5909 115.403 70.5739 115.369 70.5568L115.54 69.9659C115.703 70.0076 115.847 70.0227 115.972 70.0114C116.097 70 116.207 69.9441 116.304 69.8438C116.402 69.7453 116.492 69.5852 116.574 69.3636L116.699 69.0227L115.085 64.6364H115.812L117.017 68.1136H117.062L118.267 64.6364H118.994L117.142 69.6364C117.059 69.8617 116.955 70.0483 116.832 70.196C116.709 70.3456 116.566 70.4564 116.403 70.5284C116.242 70.6004 116.061 70.6364 115.858 70.6364Z" fill="black"/>
<path d="M67.6506 50H66.358L70.0966 39.8182H71.3693L75.108 50H73.8153L70.7727 41.429H70.6932L67.6506 50ZM68.1278 46.0227H73.3381V47.1165H68.1278V46.0227Z" fill="black"/>
<path d="M54.0909 18.2727C53.8636 18.2727 53.661 18.2538 53.483 18.2159C53.3049 18.1818 53.1818 18.1477 53.1136 18.1136L53.4545 16.9318C53.7803 17.0152 54.0682 17.0455 54.3182 17.0227C54.5682 17 54.7898 16.8883 54.983 16.6875C55.1799 16.4905 55.3598 16.1705 55.5227 15.7273L55.7727 15.0455L52.5455 6.27273H54L56.4091 13.2273H56.5L58.9091 6.27273H60.3636L56.6591 16.2727C56.4924 16.7235 56.286 17.0966 56.0398 17.392C55.7936 17.6913 55.5076 17.9129 55.1818 18.0568C54.8598 18.2008 54.4962 18.2727 54.0909 18.2727Z" fill="black"/>
<path d="M117.227 73.2727L119.318 76.8409L121.409 73.2727H122.955L120.136 77.6364L122.955 82H121.409L119.318 78.6136L117.227 82H115.682L118.455 77.6364L115.682 73.2727H117.227Z" fill="black"/>
<path d="M68.8864 91H67.4091L71.6818 79.3636H73.1364L77.4091 91H75.9318L72.4545 81.2045H72.3636L68.8864 91ZM69.4318 86.4545H75.3864V87.7045H69.4318V86.4545ZM78.9261 86.6364L79.9716 88.4205L81.017 86.6364H81.7898L80.3807 88.8182L81.7898 91H81.017L79.9716 89.3068L78.9261 91H78.1534L79.5398 88.8182L78.1534 86.6364H78.9261Z" fill="black"/>
<path d="M99.8864 32H98.4091L102.682 20.3636H104.136L108.409 32H106.932L103.455 22.2045H103.364L99.8864 32ZM100.432 27.4545H106.386V28.7045H100.432V27.4545Z" fill="black"/>
<line x1="97" y1="18.5" x2="109" y2="18.5" stroke="black"/>
<line x1="105.354" y1="14.6464" x2="109.354" y2="18.6464" stroke="black"/>
<path d="M76.1136 67.7045V68.9545H70.5682V67.7045H76.1136ZM76.9318 67.5682V68.9545C76.9318 70.1439 76.7841 71.1231 76.4886 71.892C76.1932 72.661 75.7765 73.2311 75.2386 73.6023C74.7008 73.9735 74.0682 74.1591 73.3409 74.1591C72.6136 74.1591 71.9773 73.9735 71.4318 73.6023C70.8864 73.2311 70.4621 72.661 70.1591 71.892C69.8561 71.1231 69.7045 70.1439 69.7045 68.9545V67.5682C69.7045 66.3864 69.8542 65.4186 70.1534 64.6648C70.4527 63.911 70.8731 63.3542 71.4148 62.9943C71.9564 62.6345 72.5909 62.4545 73.3182 62.4545C74.053 62.4545 74.6913 62.6345 75.233 62.9943C75.7746 63.3542 76.1932 63.911 76.4886 64.6648C76.7841 65.4186 76.9318 66.3864 76.9318 67.5682ZM75.5682 69.2045V67.3182C75.5682 66.5379 75.4735 65.875 75.2841 65.3295C75.0947 64.7841 74.8314 64.3693 74.4943 64.0852C74.1572 63.8011 73.7652 63.6591 73.3182 63.6591C72.6591 63.6591 72.1155 63.9773 71.6875 64.6136C71.2595 65.2462 71.0455 66.1477 71.0455 67.3182V69.2045C71.0455 70.375 71.2633 71.2936 71.6989 71.9602C72.1345 72.6231 72.6818 72.9545 73.3409 72.9545C73.7879 72.9545 74.178 72.8049 74.5114 72.5057C74.8447 72.2064 75.1042 71.7765 75.2898 71.2159C75.4754 70.6553 75.5682 69.9848 75.5682 69.2045Z" fill="black"/>
</svg>
