<svg width="182" height="31" viewBox="0 0 182 31" fill="none" xmlns="http://www.w3.org/2000/svg">
<rect width="182" height="30" fill="white"/>
<path d="M172 27L166.991 24.1281L167.009 29.9016L172 27ZM6.66666 27.4921C6.66228 26.0193 5.46482 24.829 3.99207 24.8333C2.51931 24.8377 1.32896 26.0352 1.33334 27.5079C1.33773 28.9807 2.53518 30.171 4.00794 30.1667C5.4807 30.1623 6.67105 28.9648 6.66666 27.4921ZM167.499 26.5134L3.99852 27L4.00149 28L167.502 27.5134L167.499 26.5134Z" fill="black"/>
<path d="M82.8409 23.1591C82.1742 23.1591 81.5739 23.0265 81.0398 22.7614C80.5057 22.4962 80.0777 22.1326 79.7557 21.6705C79.4337 21.2083 79.2576 20.6818 79.2273 20.0909H80.5909C80.6439 20.6174 80.8826 21.053 81.3068 21.3977C81.7348 21.7386 82.2462 21.9091 82.8409 21.9091C83.3182 21.9091 83.7424 21.7973 84.1136 21.5739C84.4886 21.3504 84.7822 21.0436 84.9943 20.6534C85.2102 20.2595 85.3182 19.8144 85.3182 19.3182C85.3182 18.8106 85.2064 18.358 84.983 17.9602C84.7633 17.5587 84.4602 17.2424 84.0739 17.0114C83.6875 16.7803 83.2462 16.6629 82.75 16.6591C82.3939 16.6553 82.0284 16.7102 81.6534 16.8239C81.2784 16.9337 80.9697 17.0758 80.7273 17.25L79.4091 17.0909L80.1136 11.3636H86.1591V12.6136H81.2955L80.8864 16.0455H80.9545C81.1932 15.8561 81.4924 15.6989 81.8523 15.5739C82.2121 15.4489 82.5871 15.3864 82.9773 15.3864C83.6894 15.3864 84.3239 15.5568 84.8807 15.8977C85.4413 16.2348 85.8807 16.697 86.1989 17.2841C86.5208 17.8712 86.6818 18.5417 86.6818 19.2955C86.6818 20.0379 86.5152 20.7008 86.1818 21.2841C85.8523 21.8636 85.3977 22.322 84.8182 22.6591C84.2386 22.9924 83.5795 23.1591 82.8409 23.1591ZM88.9616 23V14.2727H90.2571V15.6364H90.3707C90.5526 15.1705 90.8461 14.8087 91.2514 14.5511C91.6567 14.2898 92.1435 14.1591 92.7116 14.1591C93.2874 14.1591 93.7666 14.2898 94.1491 14.5511C94.5355 14.8087 94.8366 15.1705 95.0526 15.6364H95.1435C95.367 15.1856 95.7022 14.8277 96.1491 14.5625C96.5961 14.2936 97.1321 14.1591 97.7571 14.1591C98.5374 14.1591 99.1757 14.4034 99.6719 14.892C100.168 15.3769 100.416 16.1326 100.416 17.1591V23H99.0753V17.1591C99.0753 16.5152 98.8991 16.0549 98.5469 15.7784C98.1946 15.5019 97.7798 15.3636 97.3026 15.3636C96.6889 15.3636 96.2135 15.5492 95.8764 15.9205C95.5393 16.2879 95.3707 16.7538 95.3707 17.3182V23H94.0071V17.0227C94.0071 16.5265 93.8461 16.1269 93.5241 15.8239C93.2022 15.517 92.7874 15.3636 92.2798 15.3636C91.9313 15.3636 91.6056 15.4564 91.3026 15.642C91.0033 15.8277 90.7609 16.0852 90.5753 16.4148C90.3935 16.7405 90.3026 17.1174 90.3026 17.5455V23H88.9616Z" fill="black"/>
<path d="M173.205 15V13.9773L177.045 9.77273C177.496 9.2803 177.867 8.85227 178.159 8.48864C178.451 8.12121 178.667 7.77652 178.807 7.45455C178.951 7.12879 179.023 6.78788 179.023 6.43182C179.023 6.02273 178.924 5.66856 178.727 5.36932C178.534 5.07008 178.269 4.83901 177.932 4.67614C177.595 4.51326 177.216 4.43182 176.795 4.43182C176.348 4.43182 175.958 4.52462 175.625 4.71023C175.295 4.89205 175.04 5.14773 174.858 5.47727C174.68 5.80682 174.591 6.19318 174.591 6.63636H173.25C173.25 5.95455 173.407 5.35606 173.722 4.84091C174.036 4.32576 174.464 3.92424 175.006 3.63636C175.551 3.34848 176.163 3.20455 176.841 3.20455C177.523 3.20455 178.127 3.34848 178.653 3.63636C179.18 3.92424 179.593 4.3125 179.892 4.80114C180.191 5.28977 180.341 5.83333 180.341 6.43182C180.341 6.85985 180.263 7.27841 180.108 7.6875C179.956 8.0928 179.691 8.54545 179.312 9.04545C178.938 9.54167 178.417 10.1477 177.75 10.8636L175.136 13.6591V13.75H180.545V15H173.205Z" fill="black"/>
<circle cx="176" cy="27" r="3" fill="black"/>
<path d="M5.29545 3.36364V15H3.88636V4.84091H3.81818L0.977273 6.72727V5.29545L3.88636 3.36364H5.29545Z" fill="black"/>
</svg>
